G04 EAGLE Gerber RS-274X export*
G75*
%MOMM*%
%FSLAX34Y34*%
%LPD*%
%INTop Copper*%
%IPPOS*%
%AMOC8*
5,1,8,0,0,1.08239X$1,22.5*%
G01*
%ADD10C,1.524000*%
%ADD11C,1.879600*%
%ADD12P,1.649562X8X202.500000*%
%ADD13R,1.879600X1.879600*%
%ADD14P,3.247170X8X22.500000*%
%ADD15C,1.950000*%
%ADD16P,1.429621X8X112.500000*%
%ADD17P,1.429621X8X202.500000*%
%ADD18P,1.429621X8X292.500000*%
%ADD19P,1.429621X8X22.500000*%
%ADD20C,0.381000*%
%ADD21C,0.756400*%


D10*
X939800Y208280D02*
X939800Y223520D01*
X965200Y223520D02*
X965200Y208280D01*
X939800Y271780D02*
X939800Y287020D01*
X965200Y287020D02*
X965200Y271780D01*
X939800Y335280D02*
X939800Y350520D01*
X965200Y350520D02*
X965200Y335280D01*
X939800Y398780D02*
X939800Y414020D01*
X965200Y414020D02*
X965200Y398780D01*
D11*
X63500Y101600D03*
X88900Y101600D03*
X114300Y101600D03*
X139700Y101600D03*
X165100Y101600D03*
X190500Y101600D03*
X215900Y101600D03*
X241300Y101600D03*
X266700Y101600D03*
X292100Y101600D03*
X317500Y101600D03*
X342900Y101600D03*
X368300Y101600D03*
X393700Y101600D03*
X419100Y101600D03*
X444500Y101600D03*
X469900Y101600D03*
X495300Y101600D03*
X520700Y101600D03*
X546100Y101600D03*
X571500Y101600D03*
X596900Y101600D03*
X952500Y88900D03*
X952500Y114300D03*
X952500Y139700D03*
X876300Y88900D03*
X876300Y114300D03*
X876300Y139700D03*
X800100Y88900D03*
X800100Y114300D03*
X800100Y139700D03*
X723900Y88900D03*
X723900Y114300D03*
X723900Y139700D03*
X63500Y190500D03*
X88900Y190500D03*
X114300Y190500D03*
X139700Y190500D03*
X165100Y190500D03*
X190500Y190500D03*
X215900Y190500D03*
X241300Y190500D03*
X266700Y190500D03*
X292100Y190500D03*
X317500Y190500D03*
X342900Y190500D03*
X368300Y190500D03*
X393700Y190500D03*
X419100Y190500D03*
X444500Y190500D03*
X469900Y190500D03*
X495300Y190500D03*
X520700Y190500D03*
X546100Y190500D03*
X571500Y190500D03*
X596900Y190500D03*
D10*
X957580Y457200D02*
X972820Y457200D01*
X972820Y482600D02*
X957580Y482600D01*
X957580Y508000D02*
X972820Y508000D01*
X972820Y533400D02*
X957580Y533400D01*
X957580Y558800D02*
X972820Y558800D01*
X972820Y584200D02*
X957580Y584200D01*
X909320Y457200D02*
X894080Y457200D01*
X894080Y482600D02*
X909320Y482600D01*
X909320Y508000D02*
X894080Y508000D01*
X894080Y533400D02*
X909320Y533400D01*
X909320Y558800D02*
X894080Y558800D01*
D12*
X812800Y584200D03*
X812800Y558800D03*
X787400Y584200D03*
X787400Y558800D03*
X762000Y584200D03*
X762000Y558800D03*
X736600Y584200D03*
X736600Y558800D03*
X711200Y584200D03*
X711200Y558800D03*
D13*
X971700Y635400D03*
X971700Y660400D03*
X971700Y685400D03*
D14*
X901700Y616400D03*
X901700Y704400D03*
D10*
X952500Y754380D02*
X952500Y769620D01*
X927100Y769620D02*
X927100Y754380D01*
D13*
X736600Y228600D03*
D11*
X762000Y228600D03*
X787400Y228600D03*
D13*
X736600Y482600D03*
D11*
X762000Y482600D03*
X787400Y482600D03*
D13*
X736600Y355600D03*
D11*
X762000Y355600D03*
X787400Y355600D03*
D15*
X749300Y650400D03*
X749300Y708400D03*
X701300Y680400D03*
D16*
X647700Y76200D03*
X647700Y177800D03*
X635000Y203200D03*
X635000Y304800D03*
X647700Y330200D03*
X647700Y431800D03*
D17*
X812800Y431800D03*
X711200Y431800D03*
D16*
X647700Y457200D03*
X647700Y558800D03*
X889000Y177800D03*
X889000Y279400D03*
X647700Y584200D03*
X647700Y685800D03*
X889000Y317500D03*
X889000Y419100D03*
D18*
X596900Y736600D03*
X596900Y635000D03*
D19*
X711200Y292100D03*
X812800Y292100D03*
D20*
X797433Y290703D02*
X712089Y290703D01*
X797433Y290703D02*
X834771Y253365D01*
X901446Y253365D01*
X938784Y216027D01*
X712089Y290703D02*
X711200Y292100D01*
X938784Y216027D02*
X939800Y215900D01*
X613410Y736092D02*
X597408Y736092D01*
X613410Y736092D02*
X658749Y690753D01*
X658749Y610743D01*
X637413Y589407D01*
X637413Y578739D01*
X645414Y570738D01*
X674751Y570738D01*
X749427Y496062D01*
X792099Y496062D01*
X877443Y410718D01*
X877443Y314706D01*
X912114Y280035D01*
X938784Y280035D01*
X597408Y736092D02*
X596900Y736600D01*
X938784Y280035D02*
X939800Y279400D01*
X917448Y320040D02*
X890778Y320040D01*
X917448Y320040D02*
X938784Y341376D01*
X890778Y320040D02*
X889000Y317500D01*
X938784Y341376D02*
X939800Y342900D01*
X669417Y584073D02*
X648081Y584073D01*
X669417Y584073D02*
X752094Y501396D01*
X832104Y501396D01*
X925449Y408051D01*
X938784Y408051D01*
X648081Y584073D02*
X647700Y584200D01*
X938784Y408051D02*
X939800Y406400D01*
X597408Y189357D02*
X597408Y104013D01*
X596900Y101600D01*
X597408Y189357D02*
X596900Y190500D01*
X570738Y189357D02*
X570738Y104013D01*
X570738Y189357D02*
X571500Y190500D01*
X570738Y104013D02*
X571500Y101600D01*
X546735Y104013D02*
X546735Y189357D01*
X546735Y104013D02*
X546100Y101600D01*
X546735Y189357D02*
X546100Y190500D01*
X704088Y370713D02*
X768096Y370713D01*
X704088Y370713D02*
X650748Y317373D01*
X632079Y317373D01*
X522732Y208026D01*
X522732Y192024D01*
X520700Y190500D01*
X520065Y189357D02*
X520065Y104013D01*
X520700Y101600D01*
X520065Y189357D02*
X520700Y190500D01*
D21*
X768096Y370713D03*
D20*
X496062Y189357D02*
X496062Y104013D01*
X496062Y189357D02*
X495300Y190500D01*
X496062Y104013D02*
X495300Y101600D01*
X965454Y480060D02*
X976122Y469392D01*
X978789Y469392D01*
X984123Y464058D01*
X984123Y101346D01*
X938784Y56007D01*
X653415Y56007D01*
X965454Y480060D02*
X965200Y482600D01*
X469392Y189357D02*
X469392Y104013D01*
X469392Y189357D02*
X469900Y190500D01*
X469392Y104013D02*
X469900Y101600D01*
D21*
X653415Y56007D03*
D20*
X445389Y104013D02*
X445389Y189357D01*
X445389Y104013D02*
X444500Y101600D01*
X445389Y189357D02*
X444500Y190500D01*
X418719Y189357D02*
X418719Y104013D01*
X419100Y101600D01*
X418719Y189357D02*
X419100Y190500D01*
X394716Y189357D02*
X394716Y104013D01*
X393700Y101600D01*
X394716Y189357D02*
X393700Y190500D01*
X368046Y189357D02*
X368046Y104013D01*
X368300Y101600D01*
X368046Y189357D02*
X368300Y190500D01*
X645414Y605409D02*
X645414Y685419D01*
X645414Y605409D02*
X344043Y304038D01*
X344043Y192024D01*
X645414Y685419D02*
X647700Y685800D01*
X344043Y192024D02*
X342900Y190500D01*
X344043Y189357D02*
X344043Y104013D01*
X342900Y101600D01*
X344043Y189357D02*
X342900Y190500D01*
X333375Y88011D02*
X613410Y88011D01*
X333375Y88011D02*
X320040Y101346D01*
X317500Y101600D01*
X317373Y104013D02*
X317373Y189357D01*
X317500Y190500D01*
X317373Y104013D02*
X317500Y101600D01*
D21*
X613410Y88011D03*
D20*
X594741Y600075D02*
X594741Y634746D01*
X594741Y600075D02*
X293370Y298704D01*
X293370Y192024D01*
X594741Y634746D02*
X596900Y635000D01*
X293370Y192024D02*
X292100Y190500D01*
X293370Y189357D02*
X293370Y104013D01*
X292100Y101600D01*
X293370Y189357D02*
X292100Y190500D01*
X266700Y190500D02*
X266700Y101600D01*
X810768Y560070D02*
X810768Y568071D01*
X800100Y578739D01*
X800100Y589407D01*
X768096Y621411D01*
X810768Y560070D02*
X812800Y558800D01*
X240030Y189357D02*
X240030Y104013D01*
X241300Y101600D01*
X240030Y189357D02*
X241300Y190500D01*
D21*
X768096Y621411D03*
D20*
X216027Y189357D02*
X216027Y104013D01*
X215900Y101600D01*
X216027Y189357D02*
X215900Y190500D01*
X216027Y101346D02*
X280035Y37338D01*
X216027Y101346D02*
X215900Y101600D01*
D21*
X280035Y37338D03*
D20*
X189357Y104013D02*
X189357Y189357D01*
X189357Y104013D02*
X190500Y101600D01*
X189357Y189357D02*
X190500Y190500D01*
X818769Y88011D02*
X874776Y88011D01*
X818769Y88011D02*
X794766Y64008D01*
X672084Y64008D01*
X874776Y88011D02*
X876300Y88900D01*
D21*
X672084Y64008D03*
D20*
X165354Y104013D02*
X165354Y189357D01*
X165354Y104013D02*
X165100Y101600D01*
X165354Y189357D02*
X165100Y190500D01*
X138684Y189357D02*
X138684Y104013D01*
X139700Y101600D01*
X138684Y189357D02*
X139700Y190500D01*
X674751Y88011D02*
X722757Y88011D01*
X674751Y88011D02*
X616077Y29337D01*
X213360Y29337D01*
X141351Y101346D01*
X722757Y88011D02*
X723900Y88900D01*
X141351Y101346D02*
X139700Y101600D01*
X114681Y104013D02*
X114681Y189357D01*
X114681Y104013D02*
X114300Y101600D01*
X114681Y189357D02*
X114300Y190500D01*
X648081Y178689D02*
X712089Y178689D01*
X762000Y228600D01*
X648081Y178689D02*
X647700Y177800D01*
X778764Y245364D02*
X880110Y245364D01*
X778764Y245364D02*
X762000Y228600D01*
D21*
X880110Y245364D03*
D20*
X88011Y189357D02*
X88011Y104013D01*
X88900Y101600D01*
X88011Y189357D02*
X88900Y190500D01*
X800100Y760095D02*
X925449Y760095D01*
X800100Y760095D02*
X749427Y709422D01*
X925449Y760095D02*
X927100Y762000D01*
X749427Y709422D02*
X749300Y708400D01*
X722757Y682752D02*
X701421Y682752D01*
X724091Y684086D02*
X746760Y706755D01*
X724091Y684086D02*
X722757Y682752D01*
X701421Y682752D02*
X701300Y680400D01*
X746760Y706755D02*
X749300Y708400D01*
X944118Y560070D02*
X962787Y560070D01*
X944118Y560070D02*
X904113Y560070D01*
X901700Y558800D01*
X962787Y560070D02*
X965200Y558800D01*
X965454Y560070D02*
X965454Y584073D01*
X965200Y584200D01*
X965454Y560070D02*
X965200Y558800D01*
X786765Y584073D02*
X762762Y584073D01*
X762000Y584200D01*
X786765Y584073D02*
X787400Y584200D01*
X789432Y584073D02*
X789432Y560070D01*
X789432Y584073D02*
X787400Y584200D01*
X789432Y560070D02*
X787400Y558800D01*
X725424Y621411D02*
X725424Y682752D01*
X725424Y621411D02*
X760095Y586740D01*
X725424Y682752D02*
X724091Y684086D01*
X760095Y586740D02*
X762000Y584200D01*
X965454Y277368D02*
X965454Y216027D01*
X965200Y215900D01*
X965454Y277368D02*
X965200Y279400D01*
X965454Y344043D02*
X965454Y405384D01*
X965454Y344043D02*
X965200Y342900D01*
X965454Y405384D02*
X965200Y406400D01*
X965454Y341376D02*
X965454Y280035D01*
X965200Y279400D01*
X965454Y341376D02*
X965200Y342900D01*
X888111Y176022D02*
X888111Y152019D01*
X877443Y141351D01*
X888111Y176022D02*
X889000Y177800D01*
X877443Y141351D02*
X876300Y139700D01*
X64008Y104013D02*
X64008Y189357D01*
X64008Y104013D02*
X63500Y101600D01*
X64008Y189357D02*
X63500Y190500D01*
X637413Y202692D02*
X637413Y173355D01*
X669417Y141351D01*
X722757Y141351D01*
X637413Y202692D02*
X635000Y203200D01*
X722757Y141351D02*
X723900Y139700D01*
X725424Y138684D02*
X800100Y138684D01*
X725424Y138684D02*
X723900Y139700D01*
X800100Y138684D02*
X874776Y138684D01*
X876300Y139700D01*
X800100Y139700D02*
X800100Y138684D01*
X962787Y149352D02*
X962787Y213360D01*
X962787Y149352D02*
X954786Y141351D01*
X962787Y213360D02*
X965200Y215900D01*
X954786Y141351D02*
X952500Y139700D01*
X944118Y426720D02*
X944118Y560070D01*
X944118Y426720D02*
X962787Y408051D01*
X965200Y406400D01*
X800100Y114681D02*
X725424Y114681D01*
X723900Y114300D01*
X938784Y114681D02*
X952119Y114681D01*
X938784Y114681D02*
X877443Y114681D01*
X876300Y114300D01*
X952119Y114681D02*
X952500Y114300D01*
X874776Y114681D02*
X800100Y114681D01*
X800100Y114300D01*
X874776Y114681D02*
X876300Y114300D01*
X938784Y114681D02*
X938784Y189357D01*
X952119Y202692D01*
X952119Y232029D01*
X842772Y341376D01*
X776097Y341376D01*
X762762Y354711D01*
X762000Y355600D01*
X813435Y586740D02*
X952119Y725424D01*
X952119Y760095D01*
X813435Y586740D02*
X812800Y584200D01*
X952119Y760095D02*
X952500Y762000D01*
X762762Y557403D02*
X778764Y541401D01*
X858774Y541401D01*
X952119Y634746D01*
X970788Y634746D01*
X762762Y557403D02*
X762000Y558800D01*
X970788Y634746D02*
X971700Y635400D01*
X720090Y560070D02*
X712089Y560070D01*
X720090Y560070D02*
X730758Y570738D01*
X768096Y570738D01*
X776097Y562737D01*
X776097Y552069D01*
X781431Y546735D01*
X818769Y546735D01*
X882777Y610743D01*
X882777Y624078D01*
X941451Y682752D01*
X970788Y682752D01*
X712089Y560070D02*
X711200Y558800D01*
X970788Y682752D02*
X971700Y685400D01*
X661416Y304038D02*
X637413Y304038D01*
X689420Y276035D02*
X736092Y229362D01*
X689420Y276035D02*
X661416Y304038D01*
X637413Y304038D02*
X635000Y304800D01*
X736092Y229362D02*
X736600Y228600D01*
X645414Y157353D02*
X645414Y77343D01*
X645414Y157353D02*
X624078Y178689D01*
X624078Y210693D01*
X689420Y276035D01*
X645414Y77343D02*
X647700Y76200D01*
X648081Y330708D02*
X648081Y368046D01*
X709422Y429387D01*
X648081Y330708D02*
X647700Y330200D01*
X709422Y429387D02*
X711200Y431800D01*
X736092Y456057D02*
X736092Y480060D01*
X736092Y456057D02*
X712089Y432054D01*
X736092Y480060D02*
X736600Y482600D01*
X712089Y432054D02*
X711200Y431800D01*
X840105Y280035D02*
X888111Y280035D01*
X840105Y280035D02*
X784098Y336042D01*
X757428Y336042D01*
X738759Y354711D01*
X888111Y280035D02*
X889000Y279400D01*
X738759Y354711D02*
X736600Y355600D01*
X786765Y357378D02*
X786765Y480060D01*
X787400Y482600D01*
X786765Y357378D02*
X787400Y355600D01*
X749427Y613410D02*
X749427Y648081D01*
X749427Y613410D02*
X765429Y597408D01*
X749427Y648081D02*
X749300Y650400D01*
D21*
X765429Y597408D03*
M02*
