M48
;GenerationSoftware,Autodesk,EAGLE,9.6.2*%
;CreationDate,2023-09-28T02:58:36Z*%
FMAT,2
ICI,OFF
METRIC,TZ,000.000
T7C0.350
T6C0.813
T5C1.000
T4C1.016
T3C1.300
T2C2.000
T1C3.810
%
G90
M71
T1
X96520Y3810
X3810Y76200
X66040Y76200
X3810Y3810
T2
X90170Y61640
X90170Y70440
T3
X70130Y68040
X74930Y70840
X74930Y65040
T4
X96520Y34290
X71120Y55880
X95250Y76200
X92710Y76200
X93980Y21590
X96520Y21590
X93980Y27940
X96520Y27940
X93980Y34290
X41910Y10160
X93980Y40640
X96520Y40640
X6350Y10160
X8890Y10160
X11430Y10160
X13970Y10160
X16510Y10160
X19050Y10160
X21590Y10160
X24130Y10160
X26670Y10160
X29210Y10160
X31750Y10160
X34290Y10160
X36830Y10160
X39370Y10160
X44450Y10160
X46990Y10160
X49530Y10160
X52070Y10160
X54610Y10160
X57150Y10160
X59690Y10160
X95250Y8890
X95250Y11430
X95250Y13970
X87630Y8890
X87630Y11430
X87630Y13970
X80010Y8890
X80010Y11430
X80010Y13970
X72390Y8890
X72390Y11430
X72390Y13970
X6350Y19050
X8890Y19050
X11430Y19050
X13970Y19050
X16510Y19050
X19050Y19050
X21590Y19050
X24130Y19050
X26670Y19050
X29210Y19050
X31750Y19050
X34290Y19050
X36830Y19050
X39370Y19050
X41910Y19050
X44450Y19050
X46990Y19050
X49530Y19050
X52070Y19050
X54610Y19050
X57150Y19050
X59690Y19050
X96520Y45720
X96520Y48260
X96520Y50800
X96520Y53340
X96520Y55880
X96520Y58420
X90170Y45720
X90170Y48260
X90170Y50800
X90170Y53340
X90170Y55880
X81280Y58420
X81280Y55880
X78740Y58420
X78740Y55880
X76200Y58420
X76200Y55880
X73660Y58420
X73660Y55880
X71120Y58420
T5
X76200Y48260
X78740Y48260
X73660Y35560
X97170Y68540
X76200Y35560
X78740Y35560
X97170Y63540
X97170Y66040
X73660Y22860
X76200Y22860
X78740Y22860
X73660Y48260
T6
X64770Y7620
X64770Y58420
X64770Y68580
X88900Y31750
X88900Y41910
X59690Y73660
X59690Y63500
X71120Y29210
X81280Y29210
X64770Y17780
X63500Y20320
X63500Y30480
X64770Y33020
X64770Y43180
X81280Y43180
X71120Y43180
X64770Y45720
X64770Y55880
X88900Y17780
X88900Y27940
T7
X61341Y8801
X76810Y62141
X76810Y37071
X76543Y59741
X88011Y24536
X67208Y6401
X28003Y3734
X65341Y5601
M30