G04 EAGLE Gerber RS-274X export*
G75*
%MOMM*%
%FSLAX34Y34*%
%LPD*%
%INSoldermask Bottom*%
%IPPOS*%
%AMOC8*
5,1,8,0,0,1.08239X$1,22.5*%
G01*
%ADD10C,4.013200*%
%ADD11C,1.727200*%
%ADD12C,2.082800*%
%ADD13P,1.869504X8X202.500000*%
%ADD14R,2.082800X2.082800*%
%ADD15P,3.467112X8X22.500000*%
%ADD16C,2.153200*%
%ADD17P,1.649562X8X112.500000*%
%ADD18P,1.649562X8X202.500000*%
%ADD19P,1.649562X8X292.500000*%
%ADD20P,1.649562X8X22.500000*%
%ADD21C,0.959600*%


D10*
X38100Y38100D03*
X965200Y38100D03*
X38100Y762000D03*
X660400Y762000D03*
D11*
X939800Y223520D02*
X939800Y208280D01*
X965200Y208280D02*
X965200Y223520D01*
X939800Y271780D02*
X939800Y287020D01*
X965200Y287020D02*
X965200Y271780D01*
X939800Y335280D02*
X939800Y350520D01*
X965200Y350520D02*
X965200Y335280D01*
X939800Y398780D02*
X939800Y414020D01*
X965200Y414020D02*
X965200Y398780D01*
D12*
X63500Y101600D03*
X88900Y101600D03*
X114300Y101600D03*
X139700Y101600D03*
X165100Y101600D03*
X190500Y101600D03*
X215900Y101600D03*
X241300Y101600D03*
X266700Y101600D03*
X292100Y101600D03*
X317500Y101600D03*
X342900Y101600D03*
X368300Y101600D03*
X393700Y101600D03*
X419100Y101600D03*
X444500Y101600D03*
X469900Y101600D03*
X495300Y101600D03*
X520700Y101600D03*
X546100Y101600D03*
X571500Y101600D03*
X596900Y101600D03*
X952500Y88900D03*
X952500Y114300D03*
X952500Y139700D03*
X876300Y88900D03*
X876300Y114300D03*
X876300Y139700D03*
X800100Y88900D03*
X800100Y114300D03*
X800100Y139700D03*
X723900Y88900D03*
X723900Y114300D03*
X723900Y139700D03*
X63500Y190500D03*
X88900Y190500D03*
X114300Y190500D03*
X139700Y190500D03*
X165100Y190500D03*
X190500Y190500D03*
X215900Y190500D03*
X241300Y190500D03*
X266700Y190500D03*
X292100Y190500D03*
X317500Y190500D03*
X342900Y190500D03*
X368300Y190500D03*
X393700Y190500D03*
X419100Y190500D03*
X444500Y190500D03*
X469900Y190500D03*
X495300Y190500D03*
X520700Y190500D03*
X546100Y190500D03*
X571500Y190500D03*
X596900Y190500D03*
D11*
X957580Y457200D02*
X972820Y457200D01*
X972820Y482600D02*
X957580Y482600D01*
X957580Y508000D02*
X972820Y508000D01*
X972820Y533400D02*
X957580Y533400D01*
X957580Y558800D02*
X972820Y558800D01*
X972820Y584200D02*
X957580Y584200D01*
X909320Y457200D02*
X894080Y457200D01*
X894080Y482600D02*
X909320Y482600D01*
X909320Y508000D02*
X894080Y508000D01*
X894080Y533400D02*
X909320Y533400D01*
X909320Y558800D02*
X894080Y558800D01*
D13*
X812800Y584200D03*
X812800Y558800D03*
X787400Y584200D03*
X787400Y558800D03*
X762000Y584200D03*
X762000Y558800D03*
X736600Y584200D03*
X736600Y558800D03*
X711200Y584200D03*
X711200Y558800D03*
D14*
X971700Y635400D03*
X971700Y660400D03*
X971700Y685400D03*
D15*
X901700Y616400D03*
X901700Y704400D03*
D11*
X952500Y754380D02*
X952500Y769620D01*
X927100Y769620D02*
X927100Y754380D01*
D14*
X736600Y228600D03*
D12*
X762000Y228600D03*
X787400Y228600D03*
D14*
X736600Y482600D03*
D12*
X762000Y482600D03*
X787400Y482600D03*
D14*
X736600Y355600D03*
D12*
X762000Y355600D03*
X787400Y355600D03*
D16*
X749300Y650400D03*
X749300Y708400D03*
X701300Y680400D03*
D17*
X647700Y76200D03*
X647700Y177800D03*
X635000Y203200D03*
X635000Y304800D03*
X647700Y330200D03*
X647700Y431800D03*
D18*
X812800Y431800D03*
X711200Y431800D03*
D17*
X647700Y457200D03*
X647700Y558800D03*
X889000Y177800D03*
X889000Y279400D03*
X647700Y584200D03*
X647700Y685800D03*
X889000Y317500D03*
X889000Y419100D03*
D19*
X596900Y736600D03*
X596900Y635000D03*
D20*
X711200Y292100D03*
X812800Y292100D03*
D21*
X768096Y370713D03*
X653415Y56007D03*
X613410Y88011D03*
X768096Y621411D03*
X280035Y37338D03*
X672084Y64008D03*
X880110Y245364D03*
X765429Y597408D03*
M02*
